<svg width="130" height="21" viewBox="0 0 130 21" fill="none" xmlns="http://www.w3.org/2000/svg">
<path d="M115.664 12.1044V7.86927H130V12.1044H115.664ZM120.557 17.0548V3.00464H125.107V17.0548H120.557Z" fill="#2563EB"/>
<path d="M90.094 20.0308L98.0777 0H102.656L110.583 20.0308H104.945L101.512 10.7308C101.321 10.2157 101.149 9.73879 100.996 9.30002C100.844 8.86125 100.701 8.43202 100.567 8.01233C100.434 7.59263 100.3 7.1634 100.167 6.72463C100.052 6.28586 99.9472 5.80894 99.8518 5.29386L100.768 5.26524C100.653 5.81848 100.529 6.31448 100.396 6.75325C100.281 7.19202 100.157 7.61171 100.024 8.01233C99.89 8.41294 99.7374 8.83264 99.5657 9.27141C99.4131 9.71018 99.2414 10.1966 99.0506 10.7308L95.6168 20.0308H90.094ZM93.9857 16.7114L95.674 12.7053H104.945L106.519 16.7114L100.252 20.0308L93.9857 16.7114Z" fill="#2563EB"/>
<path d="M75.6762 20.0308V15.3951H79.1673V4.6357H75.6762V0H88.2957V4.6357H84.8332V15.3951H88.2957V20.0308H75.6762Z" fill="#2563EB"/>
<path d="M58.3845 20.0308V0H64.0503V15.1376H72.778V20.0308H58.3845Z" fill="#2563EB"/>
<path d="M35.8531 20.0308L43.8368 0H48.4153L56.3418 20.0308H50.7046L47.2707 10.7308C47.0799 10.2157 46.9082 9.73879 46.7556 9.30002C46.603 8.86125 46.4599 8.43202 46.3264 8.01233C46.1928 7.59263 46.0593 7.1634 45.9258 6.72463C45.8113 6.28586 45.7064 5.80894 45.611 5.29386L46.5267 5.26524C46.4122 5.81848 46.2882 6.31448 46.1547 6.75325C46.0402 7.19202 45.9162 7.61171 45.7827 8.01233C45.6492 8.41294 45.4965 8.83264 45.3248 9.27141C45.1722 9.71018 45.0005 10.1966 44.8098 10.7308L41.3759 20.0308H35.8531ZM39.7448 16.7114L41.4331 12.7053H50.7046L52.2784 16.7114L46.1547 20.0308L39.7448 16.7114Z" fill="#2563EB"/>
<path d="M25.8737 20.0308L17.89 0H23.6131L27.0756 9.32864C27.3045 9.92002 27.4953 10.4351 27.6479 10.8739C27.8005 11.2936 27.934 11.6942 28.0485 12.0757C28.163 12.4382 28.2774 12.8293 28.3919 13.249C28.5063 13.6496 28.6208 14.136 28.7353 14.7083H27.791C27.9626 13.9643 28.1248 13.3348 28.2774 12.8197C28.43 12.3046 28.5922 11.7896 28.7639 11.2745C28.9547 10.7594 29.1931 10.1108 29.4793 9.32864L32.8845 0H38.4645L30.4236 20.0308H25.8737Z" fill="#2563EB"/>
<path d="M0 20.0308L7.98371 0H12.5622L20.4887 20.0308H14.8514L11.4176 10.7308C11.2268 10.2157 11.0551 9.73879 10.9025 9.30002C10.7499 8.86125 10.6068 8.43202 10.4733 8.01233C10.3397 7.59263 10.2062 7.1634 10.0726 6.72463C9.95818 6.28586 9.85326 5.80894 9.75787 5.29386L10.6736 5.26524C10.5591 5.81848 10.4351 6.31448 10.3016 6.75325C10.1871 7.19202 10.0631 7.61171 9.92956 8.01233C9.79602 8.41294 9.64341 8.83264 9.47172 9.27141C9.3191 9.71018 9.14741 10.1966 8.95664 10.7308L5.52278 20.0308H0ZM3.8917 16.7114L5.58001 12.7053H14.8514L16.4253 16.7114L10.1585 20.0308L3.8917 16.7114Z" fill="#2563EB"/>
</svg>
